<svg xmlns="http://www.w3.org/2000/svg" viewBox="-240 -240 480 480" width="480" height="480" role="img" aria-label="Solaris">
  <defs>
    <linearGradient id="solaris-grad-hotel" x1="0%" y1="0%" x2="100%" y2="100%">
      <stop offset="0%" stop-color="#0369a1" />
      <stop offset="100%" stop-color="#2563eb" />
    </linearGradient>
  </defs>
  <g fill="url(#solaris-grad-hotel)">
        <path d="M1.6,-230 L42.1,-105.9 L-42.1,-154.3 Z" transform="rotate(0)" />
        <path d="M1.6,-230 L42.1,-105.9 L-42.1,-154.3 Z" transform="rotate(30)" />
        <path d="M1.6,-230 L42.1,-105.9 L-42.1,-154.3 Z" transform="rotate(60)" />
        <path d="M1.6,-230 L42.1,-105.9 L-42.1,-154.3 Z" transform="rotate(90)" />
        <path d="M1.6,-230 L42.1,-105.9 L-42.1,-154.3 Z" transform="rotate(120)" />
        <path d="M1.6,-230 L42.1,-105.9 L-42.1,-154.3 Z" transform="rotate(150)" />
        <path d="M1.6,-230 L42.1,-105.9 L-42.1,-154.3 Z" transform="rotate(180)" />
        <path d="M1.6,-230 L42.1,-105.9 L-42.1,-154.3 Z" transform="rotate(210)" />
        <path d="M1.6,-230 L42.1,-105.9 L-42.1,-154.3 Z" transform="rotate(240)" />
        <path d="M1.6,-230 L42.1,-105.9 L-42.1,-154.3 Z" transform="rotate(270)" />
        <path d="M1.6,-230 L42.1,-105.9 L-42.1,-154.3 Z" transform="rotate(300)" />
        <path d="M1.6,-230 L42.1,-105.9 L-42.1,-154.3 Z" transform="rotate(330)" />
        
    <g transform="scale(2.5)">
      <circle cx="-10" cy="0" r="14" fill="none" stroke="url(#solaris-grad-hotel)" stroke-width="7" />
      <rect x="2" y="-3.5" width="28" height="7" />
      <rect x="20" y="-3.5" width="7" height="12" />
      <rect x="30" y="-3.5" width="7" height="9" />
    </g>
  </g>
</svg>
