<svg xmlns="http://www.w3.org/2000/svg" viewBox="-240 -240 480 480" width="480" height="480" role="img" aria-label="Solaris">
  <defs>
    <linearGradient id="solaris-grad-main" x1="0%" y1="0%" x2="100%" y2="100%">
      <stop offset="0%" stop-color="#f59e0b" />
      <stop offset="100%" stop-color="#2563eb" />
    </linearGradient>
  </defs>
  <g fill="url(#solaris-grad-main)">
        <path d="M1.6,-230 L42.1,-105.9 L-42.1,-154.3 Z" transform="rotate(0)" />
        <path d="M1.6,-230 L42.1,-105.9 L-42.1,-154.3 Z" transform="rotate(30)" />
        <path d="M1.6,-230 L42.1,-105.9 L-42.1,-154.3 Z" transform="rotate(60)" />
        <path d="M1.6,-230 L42.1,-105.9 L-42.1,-154.3 Z" transform="rotate(90)" />
        <path d="M1.6,-230 L42.1,-105.9 L-42.1,-154.3 Z" transform="rotate(120)" />
        <path d="M1.6,-230 L42.1,-105.9 L-42.1,-154.3 Z" transform="rotate(150)" />
        <path d="M1.6,-230 L42.1,-105.9 L-42.1,-154.3 Z" transform="rotate(180)" />
        <path d="M1.6,-230 L42.1,-105.9 L-42.1,-154.3 Z" transform="rotate(210)" />
        <path d="M1.6,-230 L42.1,-105.9 L-42.1,-154.3 Z" transform="rotate(240)" />
        <path d="M1.6,-230 L42.1,-105.9 L-42.1,-154.3 Z" transform="rotate(270)" />
        <path d="M1.6,-230 L42.1,-105.9 L-42.1,-154.3 Z" transform="rotate(300)" />
        <path d="M1.6,-230 L42.1,-105.9 L-42.1,-154.3 Z" transform="rotate(330)" />
        <circle cx="0" cy="0" r="65" />
  </g>
</svg>
